<svg width="200" height="60" viewBox="0 0 200 60" fill="none" xmlns="http://www.w3.org/2000/svg">
  <!-- Eagle Symbol -->
  <path d="M30 15L35 8L40 15L38 20L35 18L32 20L30 15Z" fill="#334155" stroke="#334155" stroke-width="1.5" stroke-linejoin="round"/>
  <path d="M35 18L30 25L25 30L30 32L35 28L40 32L45 30L40 25L35 18Z" fill="#334155" stroke="#334155" stroke-width="1.5" stroke-linejoin="round"/>
  <path d="M25 30L20 35L22 40L27 38L25 30Z" fill="#475569" stroke="#334155" stroke-width="1.5" stroke-linejoin="round"/>
  <path d="M45 30L50 35L48 40L43 38L45 30Z" fill="#475569" stroke="#334155" stroke-width="1.5" stroke-linejoin="round"/>
  <circle cx="33" cy="12" r="1.5" fill="#64748b"/>
  <circle cx="37" cy="12" r="1.5" fill="#64748b"/>
  
  <!-- Text -->
  <text x="60" y="24" font-family="'Inter', sans-serif" font-size="18" font-weight="700" fill="#0f172a" letter-spacing="-0.5">WHITE EAGLES</text>
  <text x="60" y="40" font-family="'Inter', sans-serif" font-size="11" font-weight="500" fill="#64748b" letter-spacing="1.5">FUND</text>
</svg>
